<svg width="26" height="25" viewBox="0 0 26 25" fill="none" xmlns="http://www.w3.org/2000/svg">
<path d="M13.2505 2.47741C16.5675 2.47741 16.9591 2.489 18.2684 2.54985C19.4783 2.60491 20.1358 2.80485 20.5742 2.97291C21.1528 3.19603 21.5678 3.46262 22.0033 3.89437C22.4387 4.32612 22.7076 4.73469 22.9326 5.31132C23.1021 5.74597 23.3038 6.39794 23.3593 7.59757C23.4177 8.89571 23.4324 9.2869 23.4324 12.5728C23.4324 15.8588 23.4207 16.25 23.3593 17.5481C23.3038 18.7477 23.1021 19.3997 22.9326 19.8344C22.7076 20.4081 22.4387 20.8196 22.0033 21.2513C21.5678 21.6831 21.1558 21.9496 20.5742 22.1728C20.1358 22.3408 19.4783 22.5408 18.2684 22.5958C16.9591 22.6538 16.5675 22.6683 13.2505 22.6683C9.93352 22.6683 9.54191 22.6567 8.23265 22.5958C7.02276 22.5408 6.3652 22.3408 5.92684 22.1728C5.34819 21.9496 4.9332 21.6831 4.49775 21.2513C4.06231 20.8196 3.79344 20.411 3.56841 19.8344C3.39891 19.3997 3.19726 18.7477 3.14173 17.5481C3.08328 16.25 3.06867 15.8588 3.06867 12.5728C3.06867 9.2869 3.08036 8.89571 3.14173 7.59757C3.19726 6.39794 3.39891 5.74597 3.56841 5.31132C3.79344 4.73758 4.06231 4.32612 4.49775 3.89437C4.9332 3.46262 5.34527 3.19603 5.92684 2.97291C6.3652 2.80485 7.02276 2.60491 8.23265 2.54985C9.54191 2.4919 9.93645 2.47741 13.2505 2.47741ZM13.2505 0.257812C9.878 0.257812 9.45424 0.272301 8.13037 0.333152C6.80942 0.394002 5.90638 0.599735 5.11439 0.906887C4.29903 1.22273 3.60641 1.64289 2.91378 2.32674C2.22408 3.01058 1.79741 3.69733 1.48178 4.50867C1.17492 5.29103 0.964502 6.18641 0.903131 7.49905C0.841759 8.81168 0.827148 9.23184 0.827148 12.5757C0.827148 15.9196 0.841759 16.3398 0.903131 17.6524C0.964502 18.9622 1.172 19.8575 1.48178 20.6428C1.80033 21.4512 2.22408 22.138 2.91378 22.8247C3.60348 23.5086 4.2961 23.9316 5.11439 24.2446C5.90346 24.5488 6.8065 24.7575 8.13037 24.8183C9.45424 24.8792 9.878 24.8937 13.2505 24.8937C16.623 24.8937 17.0468 24.8792 18.3707 24.8183C19.6916 24.7575 20.5946 24.5517 21.3866 24.2446C22.202 23.9287 22.8946 23.5086 23.5872 22.8247C24.2769 22.1409 24.7036 21.4541 25.0192 20.6428C25.3261 19.8604 25.5365 18.9651 25.5979 17.6524C25.6593 16.3398 25.6739 15.9196 25.6739 12.5757C25.6739 9.23184 25.6593 8.81168 25.5979 7.49905C25.5365 6.18931 25.329 5.29393 25.0192 4.50867C24.7007 3.70022 24.2769 3.01348 23.5872 2.32674C22.8975 1.64289 22.2049 1.21983 21.3866 0.906887C20.5976 0.602633 19.6945 0.394002 18.3707 0.333152C17.0468 0.272301 16.623 0.257812 13.2505 0.257812Z" fill="white"/>
<path d="M13.2508 6.24609C9.72926 6.24609 6.87402 9.0771 6.87402 12.5688C6.87402 16.0604 9.72926 18.8914 13.2508 18.8914C16.7724 18.8914 19.6276 16.0604 19.6276 12.5688C19.6276 9.0771 16.7724 6.24609 13.2508 6.24609ZM13.2508 16.6747C10.9655 16.6747 9.1097 14.8376 9.1097 12.5688C9.1097 10.2999 10.9625 8.4628 13.2508 8.4628C15.5391 8.4628 17.3919 10.2999 17.3919 12.5688C17.3919 14.8376 15.5391 16.6747 13.2508 16.6747Z" fill="white"/>
<path d="M19.8801 7.47514C20.7033 7.47514 21.3706 6.8135 21.3706 5.99733C21.3706 5.18117 20.7033 4.51953 19.8801 4.51953C19.0569 4.51953 18.3896 5.18117 18.3896 5.99733C18.3896 6.8135 19.0569 7.47514 19.8801 7.47514Z" fill="white"/>
</svg>
