<svg width="212" height="100" viewBox="0 0 212 100" fill="none" xmlns="http://www.w3.org/2000/svg">
<g clip-path="url(#clip0_1_2591)">
<path d="M12.0532 0.505697C12.0532 0.327536 12.1911 0.172363 12.3864 0.172363H19.3897C19.5851 0.172363 19.7229 0.327536 19.7229 0.505697V1.48846C19.7229 1.66087 19.5851 1.82179 19.3897 1.82179H13.8572V5.86777H18.528C18.7061 5.86777 18.8612 6.02869 18.8612 6.2011V7.16662C18.8612 7.34478 18.7061 7.49995 18.528 7.49995H13.8572V12.1034C13.8572 12.2816 13.7021 12.4367 13.524 12.4367H12.3864C12.1969 12.4367 12.0532 12.2816 12.0532 12.1034V0.505697Z" fill="white"/>
<path d="M23.8137 11.977L29.1853 0.189655C29.237 0.0862069 29.3979 0 29.4841 0H29.6564C29.7426 0 29.9035 0.0862069 29.9552 0.189655L35.2924 11.9713C35.3958 12.2011 35.2579 12.4253 34.9936 12.4253H33.8906C33.6837 12.4253 33.5573 12.3218 33.4884 12.1609L32.4026 9.76437H26.6805C26.33 10.569 25.9623 11.3563 25.6119 12.1609C25.5602 12.2816 25.4223 12.4253 25.2097 12.4253H24.1066C23.8424 12.4253 23.7045 12.1954 23.8079 11.9713L23.8137 11.977ZM31.7419 8.26437L29.5875 3.46552H29.5013L27.3641 8.26437H31.7419Z" fill="white"/>
<path d="M39.7504 10.661C39.9055 10.4311 40.0492 10.1725 40.2043 9.94264C40.3651 9.71276 40.6064 9.64379 40.8018 9.80471C40.9052 9.89092 42.2553 11.0116 43.5996 11.0116C44.8061 11.0116 45.5759 10.276 45.5759 9.38517C45.5759 8.33345 44.6682 7.66678 42.9332 6.95414C41.1465 6.20126 39.7504 5.27597 39.7504 3.24149C39.7504 1.87368 40.8018 0.00585938 43.5824 0.00585938C45.3346 0.00585938 46.6445 0.913905 46.8169 1.04034C46.9548 1.12655 47.0984 1.37368 46.9203 1.63804C46.7824 1.84494 46.6216 2.09207 46.4837 2.30471C46.3458 2.5346 46.116 2.63804 45.8689 2.48287C45.7483 2.41391 44.5188 1.60931 43.5077 1.60931C42.037 1.60931 41.5314 2.53459 41.5314 3.18402C41.5314 4.18402 42.3012 4.79322 43.7547 5.39092C45.7828 6.21276 47.5178 7.17827 47.5178 9.31046C47.5178 11.1323 45.8919 12.6208 43.6169 12.6208C41.4797 12.6208 40.1353 11.5001 39.8538 11.2357C39.693 11.0978 39.5723 10.9714 39.7504 10.6783V10.661Z" fill="white"/>
<path d="M53.4297 0.505697C53.4297 0.327536 53.5906 0.172363 53.7629 0.172363H54.9177C55.1073 0.172363 55.2509 0.327536 55.2509 0.505697V5.39075H61.6567V0.505697C61.6567 0.327536 61.7946 0.172363 61.9899 0.172363H63.1447C63.3228 0.172363 63.4779 0.327536 63.4779 0.505697V12.0977C63.4779 12.2758 63.317 12.431 63.1447 12.431H61.9899C61.8003 12.431 61.6567 12.2758 61.6567 12.0977V7.03443H55.2509V12.0919C55.2509 12.2701 55.113 12.4252 54.9177 12.4252H53.7629C53.5848 12.4252 53.4297 12.2701 53.4297 12.0919V0.505697Z" fill="white"/>
<path d="M70.3604 0.505697C70.3604 0.327536 70.5212 0.172363 70.6936 0.172363H71.8483C72.0264 0.172363 72.1815 0.327536 72.1815 0.505697V12.0977C72.1815 12.2758 72.0264 12.431 71.8483 12.431H70.6936C70.5155 12.431 70.3604 12.2758 70.3604 12.0977V0.505697Z" fill="white"/>
<path d="M84.4643 0C87.9631 0 90.7667 2.81609 90.7667 6.32184C90.7667 9.82759 87.9689 12.6092 84.4643 12.6092C80.9598 12.6092 78.1792 9.82759 78.1792 6.32184C78.1792 2.81609 80.9598 0 84.4643 0V0ZM84.4643 10.8563C86.9692 10.8563 89.0145 8.82759 89.0145 6.32184C89.0145 3.81609 86.9692 1.75287 84.4643 1.75287C81.9595 1.75287 79.9315 3.83908 79.9315 6.32184C79.9315 8.8046 81.9767 10.8563 84.4643 10.8563Z" fill="white"/>
<path d="M96.7588 0.316092C96.7588 0.143678 96.9197 0 97.092 0H97.5286L105.124 8.78736H105.141V0.505747C105.141 0.327586 105.279 0.172414 105.474 0.172414H106.594C106.773 0.172414 106.928 0.327586 106.928 0.505747V12.2874C106.928 12.4655 106.773 12.6034 106.594 12.6034H106.141L98.5455 3.56897H98.5283V12.0977C98.5283 12.2759 98.3904 12.431 98.1951 12.431H97.092C96.9139 12.431 96.7588 12.2759 96.7588 12.0977V0.316092Z" fill="white"/>
<path d="M211.678 44.5229C209.794 45.6206 208.025 46.3102 206.048 45.8275C205.491 45.6895 204.848 45.2757 204.486 44.9079C204.917 44.0401 207.576 39.8504 204.635 39.7068C203.101 39.6321 202.515 43.0803 203.905 44.7815C203.923 44.8045 203.94 44.8217 203.963 44.839C203.882 44.9424 203.802 45.0573 203.716 45.155C202.894 46.1378 202.061 46.8907 201.205 47.4194C200.625 47.77 200.142 47.8907 199.763 47.7872C199.384 47.6838 199.079 47.4022 198.855 46.9482C198.631 46.4999 198.488 45.9367 198.419 45.27C198.35 44.6033 198.333 43.9079 198.361 43.178C198.39 42.4539 198.459 41.7642 198.562 41.1091C198.666 40.4539 198.786 39.9022 198.93 39.4596L199.223 38.5171C199.74 38.3045 200.389 37.9022 201.171 37.3045C201.946 36.7125 202.716 35.9884 203.474 35.1436C204.233 34.2987 204.876 33.3734 205.416 32.3734C205.956 31.3734 206.249 30.3792 206.301 29.3964C206.347 28.6665 206.163 28.178 205.738 27.9309C205.313 27.6838 204.756 27.6608 204.06 27.8562C202.762 28.2815 201.596 29.1493 200.55 30.4424C199.505 31.7413 198.626 33.224 197.919 34.8907C197.212 36.5573 196.678 38.2987 196.316 40.1206C196.172 40.8332 196.075 41.5056 196 42.155C195.064 43.9884 194.219 45.5688 193.467 46.8734C192.042 49.3619 190.99 50.6148 190.312 50.6436C189.933 50.6665 189.738 50.2183 189.738 49.3045C189.738 48.3907 190.031 46.7642 190.628 44.4137C190.726 43.9769 190.944 43.293 191.283 42.3619C191.622 41.4367 191.956 40.4079 192.277 39.27C192.599 38.1321 192.898 36.9596 193.168 35.747C193.438 34.5344 193.57 33.4596 193.564 32.5286C193.564 31.5976 193.375 30.8619 193.007 30.3275C192.639 29.793 192.002 29.6033 191.088 29.7528C190.008 29.9309 188.974 30.793 187.991 32.3332C187.009 33.8734 186.038 35.7642 185.084 38.0056C184.131 40.2413 183.189 42.678 182.258 45.316C181.327 47.9539 180.414 50.4481 179.523 52.8045C179.247 53.4424 179.155 53.4252 179.259 52.7527C179.362 52.0803 179.558 51.0688 179.845 49.724C180.138 48.3849 180.483 46.8792 180.896 45.2183C181.304 43.5573 183.964 33.5918 184.332 32.2125C184.441 31.8562 184.361 31.5401 184.079 31.27C183.798 30.9999 183.482 30.8102 183.12 30.6953C182.758 30.5861 182.396 30.5688 182.022 30.6551C181.649 30.7355 181.425 30.9137 181.339 31.1838C181.281 31.3619 178.868 40.4022 178.627 41.3964C178.483 41.9884 178.334 42.6436 178.179 43.3505C177.874 43.8562 177.564 44.3332 177.242 44.7585C176.473 45.7757 175.645 46.6665 174.772 47.4309C173.893 48.1895 172.968 48.8734 172.003 49.4826C171.032 50.0861 170.067 50.7068 169.107 51.3332C169.521 49.9482 169.871 48.747 170.176 47.7183C170.475 46.6953 170.762 45.701 171.032 44.7413C171.302 43.7872 171.589 42.8045 171.888 41.7987C172.192 40.793 172.595 39.4252 172.968 38.0459C174.605 31.9137 174.272 32.1493 174.042 31.9079C173.813 31.6723 173.583 31.5344 173.272 31.4596C172.962 31.3849 171.503 34.293 170.434 37.0631L167.711 45.1953C167.194 46.2125 166.648 47.2413 166.074 48.27C165.494 49.2987 164.908 50.247 164.304 51.1091C163.701 51.9769 163.086 52.7125 162.46 53.3275C161.834 53.9424 161.213 54.2987 160.587 54.4022C160.047 54.4941 159.8 54.0976 159.846 53.2183C159.892 52.339 160.11 51.224 160.507 49.8619C160.898 48.4999 161.438 47.0229 162.11 45.4252C162.782 43.8275 163.483 42.3619 164.201 41.0344C164.919 39.7068 165.597 38.6378 166.235 37.8332C166.867 37.0286 167.355 36.724 167.688 36.9252C167.97 37.0918 168.142 37.3907 168.188 37.8275C168.24 38.2642 168.205 38.7585 168.079 39.3102C167.958 39.8619 167.746 40.4482 167.441 41.0688C167.137 41.6953 166.769 42.2527 166.344 42.747C166.091 43.0459 166.039 43.2413 166.189 43.3447C166.35 43.5286 166.556 43.4941 166.809 43.2413C167.562 42.3504 168.102 41.4367 168.435 40.4884C168.768 39.5401 168.906 38.6838 168.837 37.9079C168.774 37.1321 168.55 36.4826 168.159 35.9539C167.774 35.4252 167.257 35.1608 166.62 35.1608C165.982 35.1608 165.247 35.4482 164.425 36.0344C163.603 36.6148 162.707 37.6033 161.742 38.9941C161.231 39.7585 160.714 40.6493 160.197 41.6723C159.68 42.6895 159.214 43.7527 158.801 44.8619C158.387 45.9711 158.036 47.0918 157.755 48.2183C157.473 49.3447 157.313 50.3792 157.278 51.3217C157.261 51.793 157.278 52.2355 157.33 52.6493C157.301 52.7068 157.272 52.7642 157.238 52.8217C156.428 54.3792 155.601 55.8849 154.75 57.339C153.9 58.793 153.113 60.0803 152.378 61.201C151.642 62.3217 150.97 63.2183 150.355 63.8907C149.741 64.5631 149.258 64.8907 148.913 64.8619C148.614 64.8677 148.511 64.3792 148.603 63.3849C148.695 62.3907 148.907 61.1493 149.235 59.655C149.562 58.155 149.97 56.4884 150.459 54.6436C150.941 52.8045 151.435 50.9999 151.935 49.2413C152.435 47.4826 152.918 45.8734 153.377 44.4194C153.843 42.9654 154.204 41.8562 154.457 41.0918C154.429 40.9252 154.273 40.7413 153.98 40.5344C153.693 40.3275 153.366 40.1608 152.998 40.0286C152.636 39.8964 152.291 39.8275 151.97 39.816C151.648 39.8045 151.481 39.8849 151.464 40.0573C151.206 41.0746 150.993 41.8619 150.826 42.4252C150.665 42.9826 150.522 43.4711 150.401 43.8964C150.281 44.3217 150.148 44.7757 150.016 45.2642C149.884 45.7528 149.7 46.4424 149.459 47.3332C148.953 48.3964 148.385 49.5056 147.77 50.6665C147.149 51.8332 146.506 52.9137 145.84 53.9137C145.173 54.9137 144.49 55.77 143.8 56.4826C143.105 57.1895 142.427 57.6033 141.761 57.7125C141.221 57.8045 140.974 57.4079 141.019 56.5286C141.065 55.6493 141.284 54.5344 141.68 53.1723C142.071 51.816 142.611 50.3332 143.283 48.7355C143.955 47.1378 144.656 45.6723 145.374 44.3447C146.092 43.0171 146.77 41.9481 147.408 41.1436C148.04 40.339 148.528 40.0344 148.862 40.2355C149.143 40.4022 149.31 40.701 149.361 41.1378C149.413 41.5746 149.379 42.0688 149.252 42.6206C149.132 43.1723 148.919 43.7585 148.614 44.3792C148.31 45.0056 147.942 45.5631 147.517 46.0573C147.264 46.3505 147.213 46.5516 147.362 46.655C147.523 46.839 147.73 46.8102 147.983 46.5516C148.775 45.655 149.327 44.7355 149.643 43.793C149.953 42.8504 150.079 41.9884 150.016 41.2183C149.953 40.4424 149.729 39.793 149.338 39.2642C148.953 38.7355 148.436 38.4711 147.799 38.4654C147.161 38.4654 146.426 38.7585 145.604 39.339C144.783 39.9194 143.886 40.9079 142.921 42.2987C142.404 43.0631 141.893 43.9539 141.376 44.9711C140.859 45.9884 140.393 47.0573 139.98 48.1608C139.566 49.27 139.216 50.3907 138.934 51.5171C138.652 52.6493 138.492 53.6838 138.457 54.6206C138.423 55.5631 138.526 56.3849 138.767 57.0861C139.009 57.7872 139.457 58.2757 140.1 58.5516C140.836 58.8562 141.571 58.8045 142.318 58.4079C143.065 58.0114 143.794 57.3907 144.507 56.5458C145.219 55.7068 145.943 54.7068 146.667 53.5458C147.391 52.3849 148.08 51.201 148.735 49.9884C148.299 50.9539 147.873 52.1493 147.471 53.5688C147.069 54.9941 146.73 56.4309 146.454 57.8792C146.179 59.3217 146.012 60.701 145.955 62.0056C145.891 63.3102 146 64.3447 146.276 65.1033C146.552 65.8619 147.029 66.2527 147.718 66.2642C148.408 66.2757 149.356 65.7183 150.579 64.5803C151.171 64.0171 151.826 63.2298 152.556 62.2125C153.285 61.201 154.015 60.0688 154.75 58.8275C155.486 57.5803 156.227 56.2585 156.979 54.8619C157.18 54.4884 157.37 54.1263 157.56 53.7585C157.56 53.7642 157.56 53.7757 157.56 53.7815C157.807 54.4826 158.249 54.9711 158.892 55.247C159.576 55.5171 160.254 55.4884 160.926 55.1665C161.598 54.8447 162.282 54.316 162.972 53.5861C163.661 52.8562 164.339 51.9826 165.005 50.9596C165.666 49.9367 166.315 48.8677 166.941 47.7413L165.258 53.816C163.42 55.0976 161.507 56.4826 159.507 57.9826C157.514 59.4826 155.606 61.1838 153.785 63.0976C151.384 65.6148 149.764 67.9539 148.925 70.1091C148.086 72.2642 147.747 74.1435 147.902 75.7527C148.063 77.3562 148.603 78.6148 149.522 79.5286C150.441 80.4367 151.464 80.9252 152.584 80.9941C154.136 81.0746 155.56 80.6263 156.847 79.6493C158.14 78.6723 159.3 77.3849 160.34 75.793C161.38 74.201 162.305 72.3792 163.121 70.3332C163.937 68.2872 164.672 66.224 165.333 64.1436C165.993 62.0631 166.591 60.0516 167.119 58.1148C167.654 56.178 168.125 54.5229 168.538 53.1378L168.653 52.6723C169.969 51.8619 171.187 51.0746 172.302 50.316C173.416 49.5573 174.433 48.7527 175.364 47.8964C176.231 47.0918 177.03 46.2068 177.759 45.2355C177.518 46.4424 177.306 47.6895 177.133 48.9826C176.944 50.4137 176.846 51.6493 176.852 52.6895C176.852 53.7298 177.018 54.4654 177.346 54.8964C177.673 55.3275 178.23 55.2068 179.012 54.5229C179.161 54.4137 179.345 54.201 179.546 53.8907C179.753 53.5803 179.948 53.2183 180.138 52.8045C180.586 51.6263 181.08 50.293 181.62 48.8045C182.16 47.316 182.735 45.7872 183.326 44.224C183.924 42.6608 184.533 41.1263 185.159 39.6263C185.785 38.1206 186.394 36.7815 186.992 35.5976C187.584 34.4194 188.17 33.4367 188.75 32.6665C189.324 31.8907 189.864 31.4654 190.364 31.3792C190.864 31.2987 191.008 31.7413 190.807 32.7068C190.605 33.6723 190.266 34.9194 189.79 36.4367C189.313 37.9596 188.796 39.6148 188.244 41.4022C187.687 43.1895 187.296 44.8562 187.084 46.4022C186.871 47.9424 186.946 49.2355 187.308 50.2815C187.675 51.3217 188.514 51.8447 189.841 51.839C190.312 51.8447 190.83 51.5688 191.404 51.0056C191.973 50.4424 192.57 49.7183 193.191 48.8332C193.811 47.9424 194.426 46.9424 195.029 45.8217C195.311 45.3045 195.569 44.7815 195.839 44.2585C195.839 44.4999 195.839 44.7413 195.845 44.9711C195.914 46.4022 196.23 47.5401 196.793 48.3792C197.356 49.2183 198.241 49.5918 199.401 49.3619C201.004 49.0459 204.244 45.1378 204.244 45.1378L204.532 45.3619C206.565 46.8907 209.754 45.9367 211.857 45.1608C212.127 45.0631 211.908 44.3562 211.656 44.4999L211.678 44.5229ZM201.843 32.316C202.572 31.0286 203.204 30.1091 203.756 29.5459C204.302 28.9884 204.733 28.747 205.043 28.8217C205.353 28.8964 205.491 29.1953 205.445 29.7125C205.399 30.4826 205.135 31.3045 204.635 32.1723C204.141 33.0401 203.566 33.8447 202.923 34.5861C202.274 35.3275 201.636 35.9654 200.998 36.4941C200.361 37.0229 199.878 37.3619 199.562 37.4941C200.355 35.3275 201.119 33.5976 201.843 32.3102V32.316ZM163.466 59.8734C162.943 61.6378 162.368 63.4309 161.731 65.2527C161.093 67.0746 160.403 68.8677 159.674 70.6206C158.938 72.3734 158.169 73.9252 157.37 75.27C156.566 76.6148 155.721 77.7068 154.836 78.5573C153.952 79.4022 153.044 79.8389 152.108 79.8677C151.297 79.8734 150.562 79.4424 149.907 78.5746C149.252 77.7068 148.907 76.5229 148.873 75.0229C148.839 73.5229 149.229 71.7987 150.039 69.8619C150.849 67.9252 152.297 65.8907 154.383 63.7642C156.141 61.9884 157.876 60.4252 159.599 59.0803C161.323 57.7355 163.098 56.4022 164.925 55.0803C164.477 56.5114 163.994 58.1091 163.477 59.8734H163.466ZM205.054 40.247C206.209 40.5631 204.325 44.3677 204.233 44.4941C203.888 43.9884 202.917 39.6608 205.054 40.247Z" fill="white"/>
<path d="M143.369 59.8734C141.726 60.1033 139.445 60.7642 137.475 61.6033C135.935 57.8964 130.701 60.4194 130.029 60.7297C131.12 59.8274 132.091 58.7412 132.947 57.4768C133.803 56.2125 134.545 54.8676 135.165 53.4481C135.785 52.0286 136.268 50.6148 136.607 49.201C136.952 47.7872 137.141 46.4941 137.182 45.3159C137.222 44.1435 137.101 43.155 136.82 42.3504C136.538 41.5515 136.078 41.0343 135.441 40.7987C134.711 40.5343 133.993 40.563 133.275 40.8734C132.557 41.1837 131.856 41.6493 131.166 42.2699C130.477 42.8906 129.811 43.632 129.161 44.4768C128.512 45.3274 127.92 46.201 127.386 47.0975C126.852 47.9941 126.363 48.8676 125.933 49.724C125.496 50.5803 125.134 51.2872 124.841 51.8447C125.364 49.8504 125.812 48.2125 126.174 46.9424C126.542 45.6722 126.852 44.5803 127.105 43.6665C127.357 42.7527 127.604 41.9711 127.834 41.3159C128.07 40.6607 128.305 39.9653 128.547 39.224C128.788 38.4826 129.052 37.6205 129.334 36.6435C129.621 35.6607 129.96 34.4194 130.351 32.9079C130.431 32.5975 130.299 32.3447 129.971 32.1435C129.638 31.9424 129.253 31.8159 128.817 31.7642C128.38 31.7067 127.961 31.7412 127.547 31.8447C127.139 31.9538 126.875 32.1665 126.754 32.4826C126.007 34.6895 125.381 36.7642 124.87 38.7182C124.358 40.6722 123.864 42.6493 123.388 44.6607C122.916 46.6435 122.417 48.724 121.894 50.9021C121.808 50.9596 121.733 51.0286 121.675 51.132C121.273 52.0458 120.687 53.2929 119.923 54.8619C119.159 56.4309 118.361 57.9883 117.522 59.5286C116.689 61.0688 115.873 62.4021 115.074 63.5286C114.276 64.6607 113.644 65.2182 113.173 65.2125C112.828 65.1837 112.661 64.7125 112.684 63.7987C112.702 62.8849 112.995 61.2929 113.563 59.0401C113.661 58.6033 113.874 57.8849 114.201 56.8964C114.529 55.9079 114.868 54.8044 115.224 53.5745C115.574 52.3504 115.89 51.086 116.166 49.7872C116.442 48.4883 116.585 47.3389 116.591 46.3447C116.591 45.3447 116.424 44.5458 116.068 43.9481C115.712 43.3504 115.08 43.1493 114.172 43.3389C113.391 43.5113 112.57 44.2182 111.708 45.4653C110.846 46.7125 110.001 48.2412 109.168 50.0573C108.335 51.8734 107.52 53.8447 106.721 55.9711C105.922 58.0975 105.199 60.1148 104.549 62.0286C103.906 63.9424 103.337 65.6148 102.849 67.0515C102.36 68.4883 102.004 69.4423 101.786 69.9021C101.556 70.3217 101.499 70.224 101.608 69.6148C101.717 68.9998 102.004 68.0228 102.464 66.6722C102.665 66.086 102.912 65.3044 103.193 64.3217C103.481 63.3389 103.768 62.3044 104.055 61.2182C104.343 60.132 104.636 59.063 104.934 58.0171C105.233 56.9711 105.474 56.1148 105.664 55.4481C105.968 54.2067 106.267 52.9826 106.56 51.7642C106.847 50.5515 107.008 49.4941 107.031 48.5975C107.054 47.701 106.893 47.0401 106.543 46.609C106.192 46.178 105.549 46.1033 104.618 46.3906C103.682 46.6722 102.705 47.5458 101.688 49.0113C100.671 50.4768 99.6373 52.2355 98.5917 54.2987C97.5461 56.3619 96.5119 58.5918 95.5008 60.9883C94.4897 63.3849 93.5417 65.6722 92.6627 67.8561C92.4731 68.2699 92.3985 68.3791 92.4272 68.178C92.4617 67.9826 92.5478 67.563 92.7029 66.9251C92.8523 66.2872 93.0591 65.4768 93.3292 64.4998C93.5934 63.5228 93.8922 62.4941 94.2311 61.4251C94.5644 60.3504 98.0401 48.2987 98.3102 47.3619C98.3217 47.1895 98.2355 46.9711 98.0401 46.7067C97.8448 46.4424 96.6268 45.6492 96.2477 45.5401C95.8685 45.4366 95.518 45.4711 95.2078 45.6493C95.1504 45.8274 92.7259 54.224 92.4157 55.2929C92.0997 56.3619 91.7665 57.6205 91.4046 59.0573C91.0426 60.4941 90.7037 61.9826 90.3819 63.5228C90.0602 65.063 89.8764 66.3964 89.8304 67.5286C89.8304 67.655 89.8304 67.7642 89.8304 67.8849C89.6868 68.1378 89.5431 68.4021 89.3938 68.6492C88.5435 70.1033 87.7564 71.3906 87.021 72.5113C86.2857 73.632 85.6135 74.5286 84.9988 75.201C84.384 75.8734 83.9014 76.201 83.5567 76.1722C83.258 76.178 83.1546 75.6895 83.2465 74.6952C83.3384 73.701 83.551 72.4596 83.8785 70.9653C84.2059 69.4653 84.6138 67.7987 85.1022 65.9538C85.5848 64.1148 86.0788 62.3102 86.5787 60.5515C87.0785 58.7929 87.5611 57.1837 88.0207 55.7297C88.486 54.2757 88.848 53.1665 89.1008 52.4021C89.072 52.2355 88.9169 52.0515 88.6239 51.8447C88.3367 51.6378 88.0092 51.4711 87.6415 51.3389C87.2796 51.2067 86.9349 51.1378 86.6131 51.1263C86.2914 51.1148 86.1191 51.1952 86.1076 51.3676C85.849 52.3849 85.6365 53.178 85.4756 53.7355C85.309 54.2929 85.1654 54.7814 85.0447 55.2067C84.9241 55.632 84.7919 56.086 84.6598 56.5745C84.5277 57.063 84.3438 57.7527 84.1083 58.6435C83.6027 59.7067 83.0339 60.8159 82.4192 61.9768C81.7987 63.1435 81.1553 64.224 80.4889 65.224C79.8224 66.224 79.1388 67.0803 78.4493 67.7929C77.7542 68.4998 77.0763 68.9136 76.4098 69.0228C75.8698 69.1148 75.6228 68.7182 75.6687 67.8389C75.7147 66.9596 75.933 65.8446 76.3294 64.4826C76.7201 63.1263 77.2601 61.6435 77.9323 60.0458C78.6045 58.4481 79.3054 56.9883 80.0235 55.655C80.7416 54.3274 81.4196 53.2584 82.0573 52.4538C82.6892 51.6492 83.1776 51.3447 83.5108 51.5458C83.5338 51.5573 83.5395 51.586 83.5625 51.5975C82.3101 52.9194 81.4885 54.4883 81.1438 56.3447C80.9887 57.1895 80.8968 59.655 82.6375 57.8676C83.4303 56.9711 83.9819 56.0515 84.2979 55.109C84.6081 54.1665 84.7345 53.3102 84.6713 52.5343C84.6426 52.155 84.5679 51.8102 84.4587 51.4941C85.4239 50.609 86.6763 50.132 87.9115 49.7757C90.1751 49.109 92.7489 49.1435 92.2261 50.7814C91.9791 51.5688 92.8523 51.155 92.8121 50.7814C92.3238 45.9251 84.2749 50.9136 84.2002 50.9826C84.1312 50.8504 84.0795 50.701 83.9934 50.586C83.6084 50.0573 83.0914 49.7929 82.4537 49.7872C81.816 49.7872 81.0806 50.0803 80.2591 50.6607C79.4375 51.2412 78.5413 52.2297 77.5761 53.6205C77.059 54.3849 76.5477 55.2757 76.0307 56.2929C75.5136 57.3102 75.0482 58.3791 74.6346 59.4826C74.221 60.5918 73.8705 61.7125 73.589 62.8389C73.3075 63.9711 73.1466 65.0056 73.1121 65.9423C73.0949 66.4079 73.1121 66.8389 73.1639 67.2469C72.6181 68.224 72.0838 69.1033 71.5667 69.8619C71.0037 70.701 70.4924 71.3561 70.0328 71.8332C69.5789 72.3102 69.2457 72.4424 69.0389 72.2182C68.7401 71.9711 68.6827 71.3561 68.8608 70.3676C69.0389 69.3849 69.3146 68.2125 69.6881 66.8561C70.0615 65.4998 70.4924 64.0286 70.975 62.4424C71.4576 60.8561 71.8597 59.3447 72.1814 57.9136C72.4974 56.4826 72.6928 55.2067 72.7674 54.0918C72.8364 52.9768 72.664 52.1952 72.2504 51.7584C71.6414 51.178 70.9405 51.1263 70.1419 51.5975C69.3434 52.0688 68.5161 52.8676 67.6543 53.9826C66.7925 55.1033 65.9308 56.4251 65.0747 57.9424C64.213 59.4653 63.4144 60.9538 62.6733 62.4136C61.9322 63.8734 61.2945 65.1895 60.7659 66.3561C60.2316 67.5286 59.8754 68.3217 59.6858 68.7297C59.3354 69.4653 58.9735 70.2929 58.5885 71.201C58.2036 72.1148 57.8015 73.0515 57.3878 74.0113C56.9684 74.9711 56.5663 75.9423 56.1698 76.9194C55.7792 77.8964 55.3943 78.7987 55.0151 79.6263C55.3311 77.155 55.7792 74.4309 56.3537 71.4481C56.9282 68.4653 57.6866 65.3044 58.6287 61.9653C60.0248 60.3332 61.5473 58.4883 63.1904 56.4366C64.8392 54.3791 66.4651 52.224 68.0794 49.9596C69.6938 47.701 71.2565 45.3619 72.7789 42.9424C74.3014 40.5228 75.6457 38.1493 76.8177 35.8102C77.9897 33.4711 78.9492 31.2125 79.7018 29.0286C80.4544 26.8447 80.8853 24.8332 81.0059 22.9883C81.0863 21.4079 80.9025 20.3561 80.4544 19.8332C80.0063 19.3159 79.3571 19.0573 78.5011 19.0745C77.0935 19.0975 75.6802 19.701 74.2554 20.8906C72.8306 22.0803 71.4403 23.6837 70.0845 25.6895C68.7286 27.6952 67.413 30.0171 66.1433 32.6435C64.8679 35.2757 63.65 38.0458 62.4895 40.9538C61.3232 43.8619 60.2546 46.8217 59.2779 49.8274C58.3013 52.8332 57.4223 55.7182 56.6409 58.4768C56.0952 60.3849 55.6068 62.2125 55.1644 63.9826C53.6018 65.4309 52.0104 66.8447 50.2869 68.1205C47.6039 70.1033 35.1887 75.1837 35.2002 66.8159C35.2002 66.5171 34.7349 66.5171 34.7349 66.8159C34.7291 70.9941 38.9575 72.2355 42.5482 71.678C47.5982 70.8964 51.3784 68.0803 54.9519 64.8217C54.7508 65.6607 54.5555 66.4826 54.3774 67.2872C53.7626 70.0401 53.349 72.4366 53.1307 74.4653C52.9124 76.4941 52.9239 78.1033 53.1594 79.2987C53.4007 80.4883 53.9235 81.0803 54.7336 81.0745C54.9404 81.0401 55.1645 80.8447 55.4057 80.4883C55.647 80.132 55.8596 79.7355 56.0435 79.2987C56.2273 78.8619 56.3824 78.4481 56.5088 78.0458C56.6352 77.6435 56.7329 77.3906 56.8018 77.2987C57.0718 76.6148 57.474 75.6378 58.014 74.3619C58.5483 73.086 59.1516 71.6837 59.818 70.1492C60.4844 68.6205 61.1968 67.0113 61.9667 65.3389C62.7365 63.6607 63.5293 62.0803 64.3509 60.5803C65.1724 59.086 65.9882 57.7642 66.804 56.609C67.6141 55.4538 68.3839 54.609 69.1021 54.063C69.5617 53.7297 69.7915 53.7814 69.7972 54.201C69.803 54.6263 69.6651 55.2872 69.3893 56.178C69.1078 57.0745 68.7574 58.1493 68.3207 59.4079C67.8899 60.6665 67.4705 61.9711 67.074 63.3044C66.6776 64.6435 66.3387 65.9653 66.0629 67.2584C65.7871 68.5573 65.6722 69.6895 65.7297 70.655C65.7814 71.6205 66.0457 72.3734 66.5168 72.9136C66.9879 73.4481 67.7864 73.6263 68.9125 73.4423C69.7857 73.2987 70.7107 72.5515 71.6816 71.201C72.2849 70.3676 72.8709 69.4538 73.4511 68.4883C73.7039 69.1378 74.129 69.6033 74.7438 69.8676C75.4791 70.1722 76.2145 70.1205 76.9614 69.724C77.7082 69.3274 78.4379 68.7067 79.1502 67.8676C79.8684 67.0286 80.5865 66.0286 81.3104 64.8676C82.0343 63.7067 82.7237 62.5228 83.3786 61.3102C82.942 62.2757 82.5169 63.4711 82.1147 64.8906C81.7126 66.3159 81.3736 67.7527 81.0978 69.201C80.8221 70.6435 80.6555 72.0228 80.598 73.3274C80.5348 74.632 80.644 75.6665 80.9197 76.4251C81.1955 77.1837 81.6723 77.5745 82.3618 77.586C83.0512 77.5975 83.9991 77.0401 85.2228 75.9021C85.8088 75.3389 86.4695 74.5515 87.1991 73.5343C87.9288 72.5228 88.6584 71.3906 89.3938 70.1492C89.5776 69.8389 89.7614 69.5113 89.9453 69.1895C90.0257 69.4883 90.1234 69.7469 90.267 69.9366C90.6232 70.4079 91.2782 70.2872 92.2261 69.5803C92.8293 69.0975 93.4556 68.1148 94.1105 66.6263C94.7597 65.1378 95.4778 63.4194 96.2707 61.4653C97.0577 59.5113 97.931 57.4883 98.8847 55.3964C99.8441 53.3044 100.93 51.4194 102.142 49.7297C103.435 47.9883 104.107 47.655 104.153 48.7297C104.205 49.8044 103.682 52.086 102.596 55.5803C102.205 56.8332 101.786 58.2412 101.338 59.7987C100.89 61.3561 100.488 62.9194 100.126 64.4883C99.7637 66.0573 99.4649 67.5286 99.2236 68.9021C98.9823 70.2757 98.8617 71.4251 98.8617 72.3332C98.8617 73.2469 99.0053 73.8389 99.2868 74.109C99.5626 74.3791 100.051 74.1607 100.746 73.4538C101.148 73.0458 101.637 72.1378 102.217 70.7297C102.797 69.3159 103.429 67.655 104.113 65.7355C104.796 63.8159 105.537 61.7642 106.33 59.5745C107.123 57.3849 107.916 55.2987 108.72 53.3217C109.525 51.3447 110.317 49.609 111.093 48.1205C111.874 46.632 112.604 45.6205 113.282 45.086C113.73 44.7125 113.983 44.747 114.035 45.1837C114.086 45.6205 113.994 46.3044 113.764 47.2355C113.535 48.1665 113.219 49.2987 112.822 50.6378C112.426 51.9768 112.035 53.3676 111.656 54.8102C111.277 56.2527 110.944 57.678 110.662 59.0803C110.381 60.4883 110.248 61.7584 110.271 62.9021C110.289 64.0458 110.49 64.9768 110.863 65.701C111.237 66.4251 111.897 66.7929 112.84 66.8044C113.265 66.8159 113.793 66.4998 114.408 65.8447C115.028 65.1895 115.655 64.3561 116.298 63.3332C116.942 62.3159 117.602 61.1952 118.274 59.9826C118.947 58.7699 119.567 57.586 120.124 56.4309C120.394 55.8676 120.647 55.3274 120.883 54.8159C120.584 55.9423 120.268 57.109 119.923 58.3332C117.918 62.4826 116.281 66.3102 115 69.8102C113.719 73.3102 112.759 76.3446 112.116 78.9136C111.472 81.4826 111.116 83.5343 111.053 85.0745C110.99 86.6148 111.15 87.5228 111.535 87.7987C112.07 88.178 112.65 88.0171 113.282 87.3159C113.914 86.6148 114.575 85.563 115.258 84.155C115.942 82.7469 116.626 81.0745 117.309 79.1377C117.993 77.201 118.659 75.178 119.32 73.0745C119.975 70.9711 120.59 68.8619 121.158 66.7527C121.727 64.6435 122.233 62.724 122.669 60.9941C123.112 59.2642 123.468 57.8274 123.749 56.678C124.031 55.5286 124.192 54.8217 124.232 54.563C125.134 52.7987 126.013 51.1378 126.863 49.5745C127.714 48.0113 128.558 46.6435 129.385 45.4653C130.218 44.2872 131.011 43.3504 131.77 42.6493C132.528 41.9481 133.275 41.6033 133.999 41.609C134.47 41.6148 134.688 42.0458 134.659 42.9021C134.631 43.7584 134.43 44.8619 134.056 46.2182C133.683 47.5745 133.2 49.0573 132.614 50.6607C132.022 52.2642 131.425 53.7987 130.81 55.2584C130.195 56.7182 129.609 57.9941 129.041 59.086C128.472 60.178 128.047 60.8734 127.754 61.178C127.139 61.3217 126.553 61.5286 125.996 61.7872C125.439 62.0515 124.95 62.3217 124.531 62.6033C124.106 62.8849 123.778 63.1722 123.554 63.4653C123.324 63.7584 123.232 64.0286 123.273 64.2757C123.301 64.4366 123.491 64.5056 123.847 64.4653C124.203 64.4251 124.634 64.3044 125.128 64.0918C125.628 63.8849 126.191 63.5975 126.812 63.2412C127.438 62.8849 128.03 62.4653 128.593 61.9941C133.281 59.0286 136.153 60.1148 137.055 61.8332C135.803 62.4309 134.677 63.0515 133.947 64.0113C132.614 65.7584 132.832 69.109 135.584 68.7125C138.239 68.3332 138.325 65.1033 138.032 63.0286C137.98 62.6607 137.894 62.3389 137.779 62.0458C138.072 61.9194 138.359 61.7987 138.618 61.6895C140.169 61.0401 141.852 60.2757 143.49 60.4481C143.863 60.4883 143.702 59.8274 143.335 59.8791L143.369 59.8734ZM83.9014 52.0458C83.9531 52.1722 84.0049 52.2929 84.0221 52.4538C84.0738 52.8906 84.0393 53.3849 83.9129 53.9366C83.7923 54.4883 83.5797 55.0745 83.2752 55.6952C82.9707 56.3159 82.5341 57.063 82.1779 57.3734C81.1036 58.3044 81.9883 52.9309 83.9014 52.0458ZM60.5993 55.4136C61.306 53.0918 62.162 50.4653 63.1731 47.5401C64.1843 44.6148 65.3046 41.5745 66.534 38.4194C67.7635 35.2642 69.0446 32.3561 70.3775 29.6952C71.7103 27.0343 73.0662 24.8044 74.4565 23.0056C75.8468 21.2067 77.1854 20.201 78.4723 19.9826C79.179 19.8676 79.6731 20.1952 79.9488 20.9768C80.2246 21.7584 80.2188 23.063 79.9258 24.8964C79.6213 26.6837 79.0928 28.5803 78.3344 30.5688C77.5761 32.563 76.6511 34.6033 75.5653 36.6952C74.4795 38.7872 73.2788 40.8849 71.9631 42.9883C70.6475 45.0975 69.2629 47.1722 67.8037 49.2182C66.3502 51.2642 64.8794 53.224 63.3972 55.1033C61.9149 56.9826 60.4729 58.7412 59.0769 60.3676C59.3814 59.3849 59.8869 57.7297 60.5936 55.4079L60.5993 55.4136ZM116.189 73.1205C115.362 76.3791 114.666 79.0286 114.109 81.0745C113.552 83.1205 113.104 84.6148 112.771 85.563C112.437 86.5113 112.179 86.9538 112.001 86.9021C111.742 86.9021 111.668 86.2469 111.771 84.9366C111.874 83.6263 112.208 81.8159 112.765 79.5228C113.322 77.224 114.138 74.5228 115.201 71.4136C116.269 68.3102 117.631 64.9424 119.297 61.3102C118.056 65.9309 117.022 69.8676 116.189 73.1263V73.1205ZM137.164 66.9136C135.596 69.678 132.764 68.0975 134.165 64.8102C134.665 63.6378 136.038 62.8447 137.314 62.2584C137.52 62.8964 137.578 63.7412 137.624 64.2584C137.704 65.1837 137.624 66.1033 137.164 66.9079V66.9136Z" fill="white"/>
<path d="M55.7158 38.3852C55.2735 37.2472 54.3025 36.3564 52.8088 35.7242C51.3151 35.0921 49.4307 34.8622 47.1614 35.0403C45.1506 35.1668 43.18 35.5806 41.2439 36.2817C39.3078 36.9829 37.4407 37.8909 35.6367 39.0059C33.8385 40.1208 32.1264 41.4139 30.5063 42.8852C28.8862 44.3564 27.4155 45.9254 26.0884 47.5806C24.1235 47.2587 21.6991 47.3219 18.8093 47.7645C15.9195 48.2128 11.5877 49.1668 8.53707 50.6495C5.5726 52.0921 2.26342 55.1898 0.729477 57.7645C-0.568916 59.9484 -0.2357 63.0576 2.50471 64.3794C5.99773 66.0633 10.2778 62.1725 11.4556 60.0288C12.6506 57.8449 12.7655 53.0633 8.81858 53.7472C5.49791 54.3219 5.93454 58.8392 9.09434 58.9139C9.36436 58.9197 9.3184 58.661 9.07711 58.5748C4.37762 56.9656 9.99058 51.4311 11.6567 56.0576C11.9267 56.8047 11.8233 60.3564 8.00852 62.4599C5.81389 63.6725 3.62501 64.1668 1.84403 62.0001C1.02822 61.0059 -0.0978179 56.5921 9.36436 51.3047C12.1278 49.7587 15.3565 49.2817 18.1084 48.8392C20.8603 48.3967 23.0779 48.6036 25.2151 48.9369C23.7501 50.8852 22.3081 53.1898 20.8948 55.8449C19.4815 58.5059 18.2061 61.3162 17.0685 64.2702C15.9253 67.23 14.9543 70.2415 14.15 73.3105C13.3457 76.3794 12.8401 79.3449 12.6448 82.207C12.4437 85.0691 12.5989 87.7013 13.1044 90.1036C13.61 92.5059 14.5752 94.5174 16.0057 96.1495C17.4362 97.7817 19.3838 98.9139 21.8485 99.5576C24.3074 100.201 27.404 100.161 31.1325 99.4426C32.7067 99.138 34.2866 98.6381 35.8608 97.9369C37.4407 97.2415 39.055 96.3564 40.7039 95.299C42.4447 94.1783 44.0188 92.8967 45.4321 91.4656C46.8454 90.0346 47.9657 88.5576 48.7987 87.0403C49.6318 85.5231 50.1603 84.0289 50.3729 82.5633C50.5855 81.0978 50.3729 79.7702 49.7237 78.5806C48.8734 77.4771 47.8565 76.707 46.6616 76.2817C45.4723 75.8564 44.2544 75.6955 43.0134 75.8047C41.7725 75.9139 40.5832 76.2185 39.4515 76.7185C38.3139 77.2243 37.3602 77.8794 36.5846 78.684C35.7574 79.5001 35.1426 80.3737 34.7577 81.3047C34.3728 82.23 34.2292 83.0921 34.3326 83.8852C34.4302 84.6725 34.7864 85.3277 35.3954 85.8449C36.0044 86.3622 36.9408 86.6093 38.2048 86.5863C38.5437 86.6093 38.7678 86.4771 38.8884 86.1955C39.0033 85.9082 38.6931 85.73 37.9577 85.6495C37.05 85.5633 36.4065 85.2702 36.0274 84.7702C35.6482 84.276 35.4701 83.6725 35.5046 82.9656C35.5333 82.2587 35.7631 81.5174 36.1882 80.73C36.6134 79.9484 37.2109 79.2415 37.9807 78.6093C38.8827 77.8679 39.8766 77.3449 40.9567 77.0518C42.0368 76.7587 43.0881 76.6553 44.105 76.7415C45.1219 76.8277 46.0353 77.1036 46.8511 77.5576C47.6612 78.0173 48.2472 78.6036 48.6091 79.322C49.1837 80.4369 49.3905 81.6668 49.2239 83.0116C49.0573 84.3564 48.5804 85.707 47.7818 87.0691C46.989 88.4254 45.9664 89.7645 44.714 91.0748C43.4673 92.3909 42.0367 93.5518 40.4339 94.5633C38.6931 95.6898 37.0098 96.5806 35.3954 97.2415C33.781 97.9024 32.2356 98.3737 30.7649 98.661C27.2489 99.3392 24.4625 99.0863 22.4057 97.9082C20.349 96.73 18.9012 94.9254 18.0567 92.5059C17.2122 90.0806 16.9307 87.161 17.2007 83.7357C17.4707 80.3105 18.1314 76.6553 19.1885 72.776C20.2456 68.8909 21.6416 64.9254 23.3709 60.8679C25.1002 56.8105 27.042 52.9311 29.1964 49.23C30.9889 49.5403 32.7756 49.8219 34.5566 50.0691C36.3319 50.3162 38.1243 50.4082 39.9283 50.3449C41.7323 50.2817 43.542 49.9886 45.3632 49.4599C47.1844 48.9369 48.9768 48.0633 50.7521 46.8449C52.9927 45.3219 54.4921 43.8162 55.2562 42.3334C56.0203 40.8507 56.1754 39.5403 55.7331 38.3967L55.7158 38.3852ZM54.337 42.2013C53.8085 43.2242 52.8835 44.253 51.5621 45.299C49.8788 46.6323 48.1208 47.5921 46.2939 48.184C44.4669 48.776 42.6228 49.1208 40.7728 49.2127C38.9229 49.3047 37.0787 49.2357 35.2518 48.9944C33.4191 48.753 31.6841 48.4656 30.0525 48.1265C31.2245 46.3219 32.7125 44.615 34.5164 42.9944C36.3204 41.3737 38.199 40.0059 40.1638 38.8852C42.1229 37.7645 44.0418 36.9254 45.909 36.3679C47.7761 35.8104 49.379 35.6668 50.7176 35.9369C51.9413 36.184 52.9122 36.6093 53.6304 37.2185C54.3428 37.8277 54.7736 38.5518 54.9173 39.4024C55.0609 40.253 54.8713 41.184 54.3428 42.207L54.337 42.2013Z" fill="white"/>
</g>
<defs>
<clipPath id="clip0_1_2591">
<rect width="212" height="100" fill="white"/>
</clipPath>
</defs>
</svg>
