<svg width="26" height="26" viewBox="0 0 26 26" fill="none" xmlns="http://www.w3.org/2000/svg">
<path fill-rule="evenodd" clip-rule="evenodd" d="M22.2355 4.40413C19.8741 2.05993 16.7295 0.767578 13.3833 0.767578C6.48633 0.767578 0.872291 6.33107 0.869369 13.1695C0.869369 15.3544 1.44509 17.4899 2.54101 19.3705L0.76709 25.7975L7.40106 24.0734C9.2276 25.0615 11.2879 25.5831 13.3804 25.5831H13.3863C20.2833 25.5831 25.8973 20.0196 25.9002 13.1782C25.9002 9.86331 24.5997 6.74833 22.2384 4.40413H22.2355ZM13.3833 23.4881H13.3804C11.513 23.4881 9.6835 22.9897 8.08784 22.0508L7.70793 21.8277L3.77138 22.8506L4.82345 19.046L4.57505 18.6548C3.53466 17.0147 2.98523 15.1168 2.98523 13.1695C2.98523 7.48434 7.65239 2.85968 13.3921 2.85968C16.1714 2.85968 18.7811 3.93471 20.745 5.88194C22.7089 7.82916 23.7902 10.4197 23.7873 13.1753C23.7873 18.8605 19.1201 23.4852 13.3863 23.4852L13.3833 23.4881ZM19.088 15.7658C18.7753 15.6094 17.2381 14.8618 16.9517 14.7574C16.6652 14.6531 16.4578 14.601 16.2473 14.9139C16.0399 15.224 15.4407 15.9223 15.2566 16.128C15.0754 16.3338 14.8913 16.3598 14.5786 16.2063C14.2659 16.0498 13.2577 15.7253 12.0653 14.6676C11.136 13.8447 10.5076 12.8305 10.3264 12.5205C10.1453 12.2104 10.306 12.0423 10.4638 11.8888C10.6041 11.7497 10.7765 11.5266 10.9314 11.3469C11.0863 11.1673 11.1389 11.0369 11.2441 10.8311C11.3493 10.6254 11.2967 10.4428 11.2178 10.2893C11.1389 10.1328 10.5135 8.60862 10.2534 7.98853C9.99913 7.38292 9.74195 7.46695 9.54907 7.45536C9.36788 7.44667 9.15746 7.44377 8.94997 7.44377C8.74248 7.44377 8.40347 7.52201 8.11707 7.83206C7.83067 8.1421 7.02406 8.8926 7.02406 10.4168C7.02406 11.9409 8.14337 13.4158 8.30118 13.6216C8.459 13.8273 10.5047 16.9597 13.6434 18.3013C14.3887 18.62 14.9731 18.8113 15.4261 18.9532C16.1743 19.188 16.8581 19.1561 17.3959 19.0749C17.9979 18.9851 19.2458 18.3245 19.5059 17.6C19.766 16.8756 19.766 16.2555 19.6871 16.1251C19.6082 15.9947 19.4007 15.9194 19.088 15.7629V15.7658Z" fill="white"/>
</svg>
