<svg width="24" height="20" viewBox="0 0 24 20" fill="none" xmlns="http://www.w3.org/2000/svg">
<path d="M17.6283 19.7725C17.0525 19.7725 16.5353 19.5697 16.0531 19.1582C15.5183 18.7033 14.3434 17.8456 12.6367 16.6662C12.1311 17.1038 11.4707 17.7007 10.7956 18.37C10.4419 18.7206 9.50676 19.645 8.53943 19.1756C7.8848 18.8568 7.72698 18.1266 7.79712 17.5442L8.23842 12.8848C8.25887 12.6704 8.34655 12.4704 8.4839 12.3139C8.50144 12.2908 8.51605 12.2734 8.52774 12.2589C8.5745 12.2038 8.6271 12.1517 8.68263 12.1053C9.58859 11.3896 10.5121 10.6507 11.4093 9.92338C9.32557 11.0882 7.49319 12.1256 7.01975 12.4212C6.7655 12.5805 6.45279 12.6356 6.08749 12.5805C6.02904 12.5718 5.97351 12.5602 5.91798 12.54L1.16607 11.0042C1.14269 10.9955 1.11931 10.9897 1.09885 10.981C0.385773 10.6942 -0.192874 9.8886 0.131519 8.96136C0.277642 8.54989 0.564043 8.30938 0.853366 8.10945C1.93468 7.36185 16.2255 2.2417 20.5829 0.688558C20.8634 0.595833 21.5327 0.416178 22.1201 0.6364C22.576 0.807361 22.8653 1.10872 23.0319 1.58683C23.1166 1.83023 23.1313 2.13159 23.1283 2.34312C23.1283 2.43874 23.1196 2.53147 23.1108 2.64158C23.1079 2.69084 23.102 2.74299 23.0991 2.80384C22.9851 4.63806 19.9458 16.8082 19.598 18.1875C19.4519 18.7583 18.8937 19.7232 17.7218 19.7667C17.6896 19.7667 17.6604 19.7667 17.6283 19.7667V19.7725ZM12.5695 14.3713C12.7711 14.3713 12.9757 14.4321 13.1511 14.5509C15.2991 16.0229 16.7252 17.0545 17.3886 17.6195C17.488 17.7036 17.5464 17.7297 17.5903 17.7412C17.602 17.721 17.6137 17.6978 17.6195 17.6804C18.9609 12.3255 20.9803 3.93103 21.0563 2.68214C14.9981 4.84089 5.71049 8.21666 2.82895 9.41339L6.24822 10.5174C8.24718 9.34674 17.3331 4.26136 18.0199 4.00927C18.0403 4.00057 18.0608 3.99478 18.0813 3.98898C18.4992 3.86728 18.9229 3.96291 19.2181 4.24977C19.4957 4.52215 19.6039 4.92493 19.4957 5.30162C19.4022 5.62906 19.183 6.38824 10.2374 13.4701L9.96559 16.3359C10.7751 15.5709 11.5028 14.9479 11.9119 14.606C12.1019 14.4495 12.3357 14.3684 12.5695 14.3684V14.3713ZM17.6166 17.6804L17.6107 17.7036C17.6107 17.6978 17.6137 17.692 17.6166 17.6833V17.6804ZM17.6195 17.6688C17.6195 17.6688 17.6195 17.6717 17.6195 17.6775V17.6717V17.6688Z" fill="white"/>
</svg>
